# xmcd
#
# Track frame offsets: 
#        150
#        15308
#        25890
#        38538
#        55538
#        67173
#        77040
#        89658
#        109920
#        121395
#        138585
#        151005
#        166868
#        183985
#        196585
#        211668
#        224208
#
# Disc length: 3157 seconds
#
# Revision: 8
# Processed by: cddbd v1.5.2PL0 Copyright (c) Steve Scherf et al.
# Submitted via: ExactAudioCopy v0.99pb5
#
DISCID=df0c5311
DTITLE=Albert King - King of the Blues Guitar
DYEAR=1969
DGENRE=Blues
TTITLE0=Laundromat Blues
TTITLE1=Overall Junction
TTITLE2=Oh, Pretty Woman
TTITLE3=Funk-Shun
TTITLE4=Crosscut Saw
TTITLE5=Down Don't Bother Me [*]
TTITLE6=Born Under a Bad Sign
TTITLE7=Personal Manager
TTITLE8=Kansas City [*]
TTITLE9=The Very Thought of You [*]
TTITLE10=The Hunter [*]
TTITLE11=I Almost Lost My Mind [*]
TTITLE12=As the Years Go Passing By [*]
TTITLE13=Cold Feet
TTITLE14=You Sure Drive a Hard Bargain
TTITLE15=(I Love) Lucy
TTITLE16=You're Gonna Need Me
EXTD=Albert King, vocals and lead guitar\nBooker T. Jones, keybords\nSte
EXTD=ve Cropper, guitar\nDuck Dunn, YEAR: 1989
EXTT0=
EXTT1=
EXTT2=
EXTT3=
EXTT4=
EXTT5=
EXTT6=
EXTT7=
EXTT8=
EXTT9=
EXTT10=
EXTT11=
EXTT12=
EXTT13=
EXTT14=
EXTT15=
EXTT16=
PLAYORDER=
